<svg width="1200" height="800" xmlns="http://www.w3.org/2000/svg">
  <defs>
    <linearGradient id="titleGradient" x1="0%" y1="0%" x2="100%" y2="0%">
      <stop offset="0%" style="stop-color:#00D9FF;stop-opacity:1"/>
      <stop offset="100%" style="stop-color:#014c75;stop-opacity:1"/>
    </linearGradient>
    
    <filter id="glow">
      <feGaussianBlur stdDeviation="2" result="coloredBlur"/>
      <feMerge>
        <feMergeNode in="coloredBlur"/>
        <feMergeNode in="SourceGraphic"/>
      </feMerge>
    </filter>
    
    <linearGradient id="borderGradient" x1="0%" y1="0%" x2="100%" y2="0%">
      <stop offset="0%" style="stop-color:#00D9FF;stop-opacity:0.4">
        <animate attributeName="stop-color" values="#00D9FF;#014c75;#00D9FF" dur="4s" repeatCount="indefinite"/>
      </stop>
      <stop offset="100%" style="stop-color:#014c75;stop-opacity:0.4">
        <animate attributeName="stop-color" values="#014c75;#00D9FF;#014c75" dur="4s" repeatCount="indefinite"/>
      </stop>
    </linearGradient>
  </defs>
  
  <!-- Animated Border -->
  <rect x="10" y="10" width="1180" height="780" rx="15" fill="none" stroke="url(#borderGradient)" stroke-width="2" opacity="0.6">
    <animate attributeName="stroke-dasharray" values="0 4000; 4000 0; 0 4000" dur="6s" repeatCount="indefinite"/>
  </rect>
  
  <!-- Main Title -->
  <text x="600" y="50" font-family="'Arial Black', sans-serif" font-size="40" font-weight="bold" fill="url(#titleGradient)" text-anchor="middle" filter="url(#glow)">
    Skills &amp; Technologies
  </text>
  
  <!-- Frontend Development Section -->
  <text x="100" y="120" font-family="Arial, sans-serif" font-size="28" font-weight="bold" fill="#00D9FF">
    💻 Frontend Development
  </text>
  
  <!-- HTML5 -->
  <g transform="translate(100, 150)">
    <rect width="60" height="60" rx="10" fill="#E34F26">
      <animate attributeName="opacity" values="1;0.8;1" dur="3s" repeatCount="indefinite"/>
    </rect>
    <polygon points="30,10 45,10 42.5,42.5 30,47.5 17.5,42.5 15,10" fill="#ffffff"/>
    <text x="30" y="75" font-family="Arial" font-size="11" fill="#ffffff" text-anchor="middle" font-weight="bold">HTML5</text>
  </g>
  
  <!-- CSS3 -->
  <g transform="translate(180, 150)">
    <rect width="60" height="60" rx="10" fill="#1572B6">
      <animate attributeName="opacity" values="1;0.8;1" dur="3s" repeatCount="indefinite" begin="0.3s"/>
    </rect>
    <polygon points="30,10 45,10 42.5,42.5 30,47.5 17.5,42.5 15,10" fill="#ffffff"/>
    <text x="30" y="75" font-family="Arial" font-size="11" fill="#ffffff" text-anchor="middle" font-weight="bold">CSS3</text>
  </g>
  
  <!-- JavaScript -->
  <g transform="translate(260, 150)">
    <rect width="60" height="60" rx="10" fill="#F7DF1E">
      <animate attributeName="y" values="0;-3;0" dur="2s" repeatCount="indefinite"/>
    </rect>
    <text x="30" y="40" font-family="Arial Black" font-size="28" fill="#000000" text-anchor="middle">JS</text>
    <text x="30" y="75" font-family="Arial" font-size="11" fill="#ffffff" text-anchor="middle" font-weight="bold">JavaScript</text>
  </g>
  
  <!-- React -->
  <g transform="translate(340, 150)">
    <rect width="60" height="60" rx="10" fill="#20232a"/>
    <g transform="translate(30, 30)">
      <ellipse cx="0" cy="0" rx="22" ry="8" fill="none" stroke="#61DAFB" stroke-width="2">
        <animateTransform attributeName="transform" type="rotate" from="0 0 0" to="360 0 0" dur="3s" repeatCount="indefinite"/>
      </ellipse>
      <ellipse cx="0" cy="0" rx="22" ry="8" fill="none" stroke="#61DAFB" stroke-width="2" transform="rotate(60)">
        <animateTransform attributeName="transform" type="rotate" from="60 0 0" to="420 0 0" dur="3s" repeatCount="indefinite"/>
      </ellipse>
      <ellipse cx="0" cy="0" rx="22" ry="8" fill="none" stroke="#61DAFB" stroke-width="2" transform="rotate(120)">
        <animateTransform attributeName="transform" type="rotate" from="120 0 0" to="480 0 0" dur="3s" repeatCount="indefinite"/>
      </ellipse>
      <circle cx="0" cy="0" r="3" fill="#61DAFB"/>
    </g>
    <text x="30" y="75" font-family="Arial" font-size="11" fill="#ffffff" text-anchor="middle" font-weight="bold">React</text>
  </g>
  
  <!-- Next.js -->
  <g transform="translate(420, 150)">
    <rect width="60" height="60" rx="10" fill="#000000">
      <animate attributeName="opacity" values="1;0.7;1" dur="2s" repeatCount="indefinite"/>
    </rect>
    <text x="30" y="42" font-family="Arial Black" font-size="32" fill="#ffffff" text-anchor="middle">N</text>
    <text x="30" y="75" font-family="Arial" font-size="11" fill="#ffffff" text-anchor="middle" font-weight="bold">Next.js</text>
  </g>
  
  <!-- Tailwind -->
  <g transform="translate(500, 150)">
    <rect width="60" height="60" rx="10" fill="#38B2AC"/>
    <path d="M15,30 Q30,15 45,30 Q37.5,37.5 30,30 Q22.5,37.5 15,30" fill="#ffffff">
      <animate attributeName="d" values="M15,30 Q30,15 45,30 Q37.5,37.5 30,30 Q22.5,37.5 15,30;M15,30 Q30,18 45,30 Q37.5,35 30,30 Q22.5,35 15,30;M15,30 Q30,15 45,30 Q37.5,37.5 30,30 Q22.5,37.5 15,30" dur="2s" repeatCount="indefinite"/>
    </path>
    <text x="30" y="75" font-family="Arial" font-size="11" fill="#ffffff" text-anchor="middle" font-weight="bold">Tailwind</text>
  </g>
  
  <!-- Bootstrap -->
  <g transform="translate(580, 150)">
    <rect width="60" height="60" rx="10" fill="#7952B3">
      <animate attributeName="fill" values="#7952B3;#563d7c;#7952B3" dur="3s" repeatCount="indefinite"/>
    </rect>
    <text x="30" y="42" font-family="Arial Black" font-size="32" fill="#ffffff" text-anchor="middle">B</text>
    <text x="30" y="75" font-family="Arial" font-size="11" fill="#ffffff" text-anchor="middle" font-weight="bold">Bootstrap</text>
  </g>
  
  <!-- Backend Development Section -->
  <text x="100" y="290" font-family="Arial, sans-serif" font-size="28" font-weight="bold" fill="#00D9FF">
    ⚙️ Backend Development
  </text>
  
  <!-- Node.js -->
  <g transform="translate(100, 320)">
    <rect width="60" height="60" rx="10" fill="#339933"/>
    <polygon points="30,15 45,22.5 45,37.5 30,45 15,37.5 15,22.5" fill="#ffffff">
      <animateTransform attributeName="transform" type="rotate" from="0 30 30" to="360 30 30" dur="8s" repeatCount="indefinite"/>
    </polygon>
    <text x="30" y="75" font-family="Arial" font-size="11" fill="#ffffff" text-anchor="middle" font-weight="bold">Node.js</text>
  </g>
  
  <!-- Express.js -->
  <g transform="translate(180, 320)">
    <rect width="60" height="60" rx="10" fill="#000000">
      <animate attributeName="opacity" values="1;0.7;1" dur="2s" repeatCount="indefinite"/>
    </rect>
    <text x="30" y="42" font-family="Arial Black" font-size="28" fill="#ffffff" text-anchor="middle">E</text>
    <text x="30" y="75" font-family="Arial" font-size="11" fill="#ffffff" text-anchor="middle" font-weight="bold">Express.js</text>
  </g>
  
  <!-- MongoDB -->
  <g transform="translate(260, 320)">
    <rect width="60" height="60" rx="10" fill="#47A248"/>
    <ellipse cx="30" cy="30" rx="10" ry="18" fill="#ffffff">
      <animate attributeName="ry" values="18;20;18" dur="2s" repeatCount="indefinite"/>
    </ellipse>
    <text x="30" y="75" font-family="Arial" font-size="11" fill="#ffffff" text-anchor="middle" font-weight="bold">MongoDB</text>
  </g>
  
  <!-- PostgreSQL -->
  <g transform="translate(340, 320)">
    <rect width="60" height="60" rx="10" fill="#336791"/>
    <ellipse cx="30" cy="30" rx="18" ry="15" fill="#ffffff">
      <animate attributeName="rx" values="18;20;18" dur="3s" repeatCount="indefinite"/>
    </ellipse>
    <text x="30" y="37" font-family="Arial Black" font-size="18" fill="#336791" text-anchor="middle">P</text>
    <text x="30" y="75" font-family="Arial" font-size="11" fill="#ffffff" text-anchor="middle" font-weight="bold">PostgreSQL</text>
  </g>
  
  <!-- MySQL -->
  <g transform="translate(420, 320)">
    <rect width="60" height="60" rx="10" fill="#4479A1"/>
    <circle cx="22" cy="30" r="10" fill="#ffffff">
      <animate attributeName="r" values="10;11;10" dur="2s" repeatCount="indefinite"/>
    </circle>
    <circle cx="38" cy="30" r="10" fill="#F29111">
      <animate attributeName="r" values="10;11;10" dur="2s" repeatCount="indefinite" begin="0.3s"/>
    </circle>
    <text x="30" y="75" font-family="Arial" font-size="11" fill="#ffffff" text-anchor="middle" font-weight="bold">MySQL</text>
  </g>
  
  <!-- Flask -->
  <g transform="translate(500, 320)">
    <rect width="60" height="60" rx="10" fill="#000000"/>
    <path d="M25,20 L30,35 L20,35 Z" fill="#ffffff"/>
    <path d="M35,25 L40,40 L30,40 Z" fill="#ffffff"/>
    <circle cx="28" cy="42" r="3" fill="#ffffff">
      <animate attributeName="opacity" values="0.5;1;0.5" dur="2s" repeatCount="indefinite"/>
    </circle>
    <text x="30" y="75" font-family="Arial" font-size="11" fill="#ffffff" text-anchor="middle" font-weight="bold">Flask</text>
  </g>
  
  <!-- AI & Data Science Section -->
  <text x="100" y="460" font-family="Arial, sans-serif" font-size="28" font-weight="bold" fill="#00D9FF">
    🤖 AI &amp; Data Science
  </text>
  
  <!-- Python -->
  <g transform="translate(100, 490)">
    <rect width="60" height="60" rx="10" fill="#3776AB"/>
    <rect x="12" y="12" width="18" height="18" rx="3" fill="#FFD43B"/>
    <rect x="30" y="30" width="18" height="18" rx="3" fill="#3776AB"/>
    <circle cx="18" cy="18" r="3" fill="#3776AB"/>
    <circle cx="42" cy="42" r="3" fill="#FFD43B"/>
    <text x="30" y="75" font-family="Arial" font-size="11" fill="#ffffff" text-anchor="middle" font-weight="bold">Python</text>
  </g>
  
  <!-- TensorFlow -->
  <g transform="translate(180, 490)">
    <rect width="60" height="60" rx="10" fill="#FF6F00">
      <animate attributeName="opacity" values="1;0.8;1" dur="2s" repeatCount="indefinite"/>
    </rect>
    <text x="30" y="40" font-family="Arial Black" font-size="24" fill="#ffffff" text-anchor="middle">TF</text>
    <text x="30" y="75" font-family="Arial" font-size="11" fill="#ffffff" text-anchor="middle" font-weight="bold">TensorFlow</text>
  </g>
  
  <!-- PyTorch -->
  <g transform="translate(260, 490)">
    <rect width="60" height="60" rx="10" fill="#EE4C2C"/>
    <path d="M30,12 Q38,22 30,35 Q22,22 30,12" fill="#ffffff">
      <animate attributeName="d" values="M30,12 Q38,22 30,35 Q22,22 30,12;M30,10 Q40,22 30,37 Q20,22 30,10;M30,12 Q38,22 30,35 Q22,22 30,12" dur="1.5s" repeatCount="indefinite"/>
    </path>
    <path d="M30,20 Q34,28 30,40 Q26,28 30,20" fill="#FFA07A" opacity="0.7">
      <animate attributeName="opacity" values="0.5;1;0.5" dur="1.5s" repeatCount="indefinite"/>
    </path>
    <text x="30" y="75" font-family="Arial" font-size="11" fill="#ffffff" text-anchor="middle" font-weight="bold">PyTorch</text>
  </g>
  
  <!-- Jupyter -->
  <g transform="translate(340, 490)">
    <rect width="60" height="60" rx="10" fill="#F37626"/>
    <circle cx="30" cy="30" r="18" fill="#ffffff" opacity="0.3">
      <animate attributeName="r" values="18;20;18" dur="2s" repeatCount="indefinite"/>
    </circle>
    <circle cx="22" cy="25" r="4" fill="#ffffff"/>
    <circle cx="38" cy="25" r="4" fill="#ffffff"/>
    <circle cx="30" cy="35" r="4" fill="#ffffff"/>
    <text x="30" y="75" font-family="Arial" font-size="11" fill="#ffffff" text-anchor="middle" font-weight="bold">Jupyter</text>
  </g>
  
  <!-- Pandas -->
  <g transform="translate(420, 490)">
    <rect width="60" height="60" rx="10" fill="#150458">
      <animate attributeName="fill" values="#150458;#1e0668;#150458" dur="3s" repeatCount="indefinite"/>
    </rect>
    <text x="30" y="42" font-family="Arial Black" font-size="32" fill="#ffffff" text-anchor="middle">P</text>
    <text x="30" y="75" font-family="Arial" font-size="11" fill="#ffffff" text-anchor="middle" font-weight="bold">Pandas</text>
  </g>
  
  <!-- NumPy -->
  <g transform="translate(500, 490)">
    <rect width="60" height="60" rx="10" fill="#013243"/>
    <polygon points="30,12 48,22 48,38 30,48 12,38 12,22" fill="#4DABCF">
      <animate attributeName="opacity" values="1;0.7;1" dur="2s" repeatCount="indefinite"/>
    </polygon>
    <text x="30" y="37" font-family="Arial Black" font-size="20" fill="#ffffff" text-anchor="middle">N</text>
    <text x="30" y="75" font-family="Arial" font-size="11" fill="#ffffff" text-anchor="middle" font-weight="bold">NumPy</text>
  </g>
  
  <!-- Scikit-learn -->
  <g transform="translate(580, 490)">
    <rect width="60" height="60" rx="10" fill="#F7931E"/>
    <circle cx="20" cy="25" r="6" fill="#3499CD"/>
    <circle cx="40" cy="25" r="6" fill="#3499CD"/>
    <circle cx="30" cy="40" r="6" fill="#3499CD">
      <animate attributeName="r" values="6;7;6" dur="2s" repeatCount="indefinite"/>
    </circle>
    <text x="30" y="75" font-family="Arial" font-size="11" fill="#ffffff" text-anchor="middle" font-weight="bold">Scikit-learn</text>
  </g>
  
  <!-- Streamlit -->
  <g transform="translate(660, 490)">
    <rect width="60" height="60" rx="10" fill="#FF4B4B"/>
    <path d="M20,20 L30,15 L40,20 L30,45 Z" fill="#ffffff">
      <animate attributeName="opacity" values="1;0.7;1" dur="2s" repeatCount="indefinite"/>
    </path>
    <text x="30" y="75" font-family="Arial" font-size="11" fill="#ffffff" text-anchor="middle" font-weight="bold">Streamlit</text>
  </g>
  
  <!-- Tools & Technologies Section -->
  <text x="100" y="630" font-family="Arial, sans-serif" font-size="28" font-weight="bold" fill="#00D9FF">
    🔧 Tools &amp; Technologies
  </text>
  
  <!-- Git -->
  <g transform="translate(100, 660)">
    <rect width="60" height="60" rx="10" fill="#F05032"/>
    <circle cx="20" cy="22" r="6" fill="#ffffff">
      <animate attributeName="r" values="6;7;6" dur="2s" repeatCount="indefinite"/>
    </circle>
    <line x1="20" y1="22" x2="40" y2="38" stroke="#ffffff" stroke-width="3"/>
    <circle cx="40" cy="38" r="6" fill="#ffffff">
      <animate attributeName="r" values="6;7;6" dur="2s" repeatCount="indefinite" begin="0.5s"/>
    </circle>
    <text x="30" y="75" font-family="Arial" font-size="11" fill="#ffffff" text-anchor="middle" font-weight="bold">Git</text>
  </g>
  
  <!-- GitHub -->
  <g transform="translate(180, 660)">
    <rect width="60" height="60" rx="10" fill="#181717"/>
    <circle cx="30" cy="30" r="20" fill="#ffffff" opacity="0.2">
      <animate attributeName="r" values="20;22;20" dur="3s" repeatCount="indefinite"/>
    </circle>
    <circle cx="24" cy="27" r="4" fill="#ffffff"/>
    <circle cx="36" cy="27" r="4" fill="#ffffff"/>
    <path d="M22,35 Q30,40 38,35" stroke="#ffffff" stroke-width="3" fill="none"/>
    <text x="30" y="75" font-family="Arial" font-size="11" fill="#ffffff" text-anchor="middle" font-weight="bold">GitHub</text>
  </g>
  
  <!-- VS Code -->
  <g transform="translate(260, 660)">
    <rect width="60" height="60" rx="10" fill="#007ACC">
      <animate attributeName="opacity" values="1;0.8;1" dur="2s" repeatCount="indefinite"/>
    </rect>
    <path d="M15,20 L38,15 L38,45 L15,40 L25,30 Z" fill="#ffffff"/>
    <text x="30" y="75" font-family="Arial" font-size="11" fill="#ffffff" text-anchor="middle" font-weight="bold">VS Code</text>
  </g>
  
  <!-- Postman -->
  <g transform="translate(340, 660)">
    <rect width="60" height="60" rx="10" fill="#FF6C37"/>
    <circle cx="30" cy="30" r="18" fill="#ffffff" opacity="0.3">
      <animate attributeName="r" values="18;20;18" dur="2s" repeatCount="indefinite"/>
    </circle>
    <text x="30" y="40" font-family="Arial Black" font-size="24" fill="#ffffff" text-anchor="middle">P</text>
    <text x="30" y="75" font-family="Arial" font-size="11" fill="#ffffff" text-anchor="middle" font-weight="bold">Postman</text>
  </g>
  
  <!-- Firebase -->
  <g transform="translate(420, 660)">
    <rect width="60" height="60" rx="10" fill="#FFCA28"/>
    <path d="M30,12 L22,28 L30,40 L38,28 Z" fill="#FFA000">
      <animate attributeName="opacity" values="1;0.7;1" dur="1.5s" repeatCount="indefinite"/>
    </path>
    <path d="M30,22 L26,32 L30,45 L34,32 Z" fill="#F57C00"/>
    <text x="30" y="75" font-family="Arial" font-size="11" fill="#ffffff" text-anchor="middle" font-weight="bold">Firebase</text>
  </g>
  
  <!-- Vercel -->
  <g transform="translate(500, 660)">
    <rect width="60" height="60" rx="10" fill="#000000">
      <animate attributeName="opacity" values="1;0.7;1" dur="2s" repeatCount="indefinite"/>
    </rect>
    <polygon points="30,15 48,45 12,45" fill="#ffffff"/>
    <text x="30" y="75" font-family="Arial" font-size="11" fill="#ffffff" text-anchor="middle" font-weight="bold">Vercel</text>
  </g>
  
  <!-- Netlify -->
  <g transform="translate(580, 660)">
    <rect width="60" height="60" rx="10" fill="#00C7B7">
      <animate attributeName="fill" values="#00C7B7;#00a896;#00C7B7" dur="3s" repeatCount="indefinite"/>
    </rect>
    <circle cx="30" cy="30" r="15" fill="#ffffff" opacity="0.3"/>
    <path d="M20,30 L40,30 M30,20 L30,40" stroke="#ffffff" stroke-width="4"/>
    <text x="30" y="75" font-family="Arial" font-size="11" fill="#ffffff" text-anchor="middle" font-weight="bold">Netlify</text>
  </g>
</svg>
